HIERARCHY
ROOT joint_Root
{
	OFFSET 0.0 0.0 0.0
	CHANNELS 6 Xposition Yposition Zposition Zrotation Xrotation Yrotation 
	JOINT Hips
	{
		OFFSET -0.726466 93.3139 -2.00062
		CHANNELS 6 Xposition Yposition Zposition Zrotation Xrotation Yrotation 
		JOINT Spine
		{
			OFFSET 15.7357 0.0 0.0
			CHANNELS 6 Xposition Yposition Zposition Zrotation Xrotation Yrotation 
			JOINT Chest
			{
				OFFSET 8.98455 -0.406207 0.0
				CHANNELS 6 Xposition Yposition Zposition Zrotation Xrotation Yrotation 
				JOINT Neck
				{
					OFFSET 16.3773 0.0 0.0
					CHANNELS 6 Xposition Yposition Zposition Zrotation Xrotation Yrotation 
					JOINT Head
					{
						OFFSET 6.45672 0.0 0.0
						CHANNELS 6 Xposition Yposition Zposition Zrotation Xrotation Yrotation 
						End Site
						{
							OFFSET 0.0 0.0 0.0
						}
					}
				}
				JOINT Shoulder_L
				{
					OFFSET 12.9942 -0.242716 4.98039
					CHANNELS 6 Xposition Yposition Zposition Zrotation Xrotation Yrotation 
					JOINT UpperArm_L
					{
						OFFSET 5.34809 0.0 0.0
						CHANNELS 6 Xposition Yposition Zposition Zrotation Xrotation Yrotation 
						JOINT LowerArm_L
						{
							OFFSET 24.3286 1.87007e-05 0.0
							CHANNELS 6 Xposition Yposition Zposition Zrotation Xrotation Yrotation 
							JOINT Hand_L
							{
								OFFSET 22.2916 0.0 0.0
								CHANNELS 6 Xposition Yposition Zposition Zrotation Xrotation Yrotation 
								End Site
								{
									OFFSET 0.0 0.0 0.0
								}
							}
						}
					}
				}
				JOINT Shoulder_R
				{
					OFFSET 12.9945 -0.242716 -4.98039
					CHANNELS 6 Xposition Yposition Zposition Zrotation Xrotation Yrotation 
					JOINT UpperArm_R
					{
						OFFSET -5.34813 0.0 0.0
						CHANNELS 6 Xposition Yposition Zposition Zrotation Xrotation Yrotation 
						JOINT LowerArm_R
						{
							OFFSET -24.3289 0.000322201 0.0
							CHANNELS 6 Xposition Yposition Zposition Zrotation Xrotation Yrotation 
							JOINT Hand_R
							{
								OFFSET -22.2915 -0.000108084 0.0
								CHANNELS 6 Xposition Yposition Zposition Zrotation Xrotation Yrotation 
								End Site
								{
									OFFSET 0.0 0.0 0.0
								}
							}
						}
					}
				}
			}
		}
		JOINT UpperLeg_L
		{
			OFFSET -2.19248 -6.46944 0.0
			CHANNELS 6 Xposition Yposition Zposition Zrotation Xrotation Yrotation 
			JOINT LowerLeg_L
			{
				OFFSET 39.0811 0.0 -1.23785e-05
				CHANNELS 6 Xposition Yposition Zposition Zrotation Xrotation Yrotation 
				JOINT Foot_L
				{
					OFFSET 40.9854 0.0 -1.26872e-05
					CHANNELS 6 Xposition Yposition Zposition Zrotation Xrotation Yrotation 
					JOINT Toes_L
					{
						OFFSET 11.7543 0.0 0.0
						CHANNELS 6 Xposition Yposition Zposition Zrotation Xrotation Yrotation 
						End Site
						{
							OFFSET 0.0 0.0 0.0
						}
					}
				}
			}
		}
		JOINT UpperLeg_R
		{
			OFFSET -2.19251 6.46944 0.0
			CHANNELS 6 Xposition Yposition Zposition Zrotation Xrotation Yrotation 
			JOINT LowerLeg_R
			{
				OFFSET -39.0811 -0.00228153 -0.0401928
				CHANNELS 6 Xposition Yposition Zposition Zrotation Xrotation Yrotation 
				JOINT Foot_R
				{
					OFFSET -40.9854 0.0 0.0
					CHANNELS 6 Xposition Yposition Zposition Zrotation Xrotation Yrotation 
					JOINT Toes_R
					{
						OFFSET -11.7543 0.0 0.0
						CHANNELS 6 Xposition Yposition Zposition Zrotation Xrotation Yrotation 
						End Site
						{
							OFFSET 0.0 0.0 0.0
						}
					}
				}
			}
		}
	}
}
MOTION
Frames:	6
Frame Time:	0.0333333
0.000000 0.000000 0.000000 0.000000 0.000000 -0.000000 -0.468635 92.212600 -0.612654 88.199600 0.064810 5.631450 15.735700 0.000005 -0.000001 83.709400 85.107500 -83.266400 8.984550 -0.406207 -0.000000 1.964760 -1.093890 0.903786 16.377300 -0.000001 -0.000001 2.448380 -2.598680 0.250747 6.456720 -0.000001 -0.000000 6.124380 -3.274680 -0.825391 12.994200 -0.242716 4.980390 -89.995900 -0.013367 -72.738700 5.348090 -0.000007 -0.000001 -67.762800 38.923900 -16.107100 24.328600 0.000019 0.000005 1.787810 4.268200 -22.751200 22.291600 -0.000001 0.000005 2.956730 5.462260 -5.081260 12.994500 -0.242716 -4.980390 88.368300 5.367790 -73.064400 -5.348130 -0.000001 -0.000004 -65.567400 40.217400 -17.011900 -24.328900 0.000322 -0.000009 3.618650 11.655400 -17.386600 -22.291500 -0.000108 -0.000004 5.640030 5.354860 -1.522000 -2.192480 -6.469440 -0.000000 -175.362000 -8.227340 -1.546120 39.081100 -0.000007 -0.000012 -0.109095 0.250234 23.556000 40.985400 -0.000006 -0.000013 0.152639 4.393170 -66.554700 11.754300 -0.000000 0.000003 -0.000055 -0.000616 -16.601400 -2.192510 6.469440 -0.000001 178.922000 15.112700 -178.505000 -39.081100 -0.002282 -0.040193 -0.068229 0.197609 19.904400 -40.985400 0.000008 0.000006 2.148380 7.277510 -65.946900 -11.754300 -0.000006 -0.000006 -0.008289 -0.090376 -20.253600
0.000000 0.000000 0.000000 0.000000 0.000000 -0.000000 -0.492352 92.215700 -0.675914 88.176400 0.119218 5.744810 15.735700 0.000005 -0.000001 83.781700 85.079300 -83.334700 8.984550 -0.406207 -0.000000 2.022170 -1.087670 0.912274 16.377300 -0.000001 -0.000001 2.432000 -2.610230 0.234694 6.456720 -0.000001 -0.000000 6.293720 -3.252490 -0.757894 12.994200 -0.242716 4.980390 -90.061500 0.199006 -72.829000 5.348090 -0.000007 -0.000001 -66.435500 36.803600 -17.478300 24.328600 0.000019 0.000005 2.414770 5.422060 -24.047800 22.291600 -0.000001 0.000005 0.680860 5.449050 -4.601540 12.994500 -0.242716 -4.980390 88.408600 5.292580 -73.237900 -5.348130 -0.000001 -0.000004 -64.090300 40.091500 -18.222800 -24.328900 0.000322 -0.000009 4.233640 12.364500 -19.073600 -22.291500 -0.000108 -0.000004 2.946840 5.342500 -1.145360 -2.192480 -6.469440 -0.000000 -175.318000 -8.137070 -1.499240 39.081100 -0.000007 -0.000012 -0.108066 0.247557 23.582900 40.985400 -0.000006 -0.000013 0.141626 4.413980 -66.518800 11.754300 -0.000000 0.000003 -0.000054 -0.000603 -16.601000 -2.192510 6.469440 -0.000001 178.941000 15.213300 -178.429000 -39.081100 -0.002282 -0.040193 -0.066229 0.192094 19.903600 -40.985400 0.000008 0.000006 2.188130 7.274600 -65.912100 -11.754300 -0.000006 -0.000006 -0.008240 -0.089977 -20.237300
0.000000 0.000000 0.000000 0.000000 0.000000 -0.000000 -0.526202 92.207000 -0.796732 88.203700 0.194931 5.832300 15.735700 0.000005 -0.000001 83.977400 85.064600 -83.554600 8.984550 -0.406207 -0.000000 2.054670 -1.056020 0.863820 16.377300 -0.000001 -0.000001 2.548700 -2.598190 0.322614 6.456720 -0.000001 -0.000000 6.371420 -3.280080 -0.717145 12.994200 -0.242716 4.980390 -90.161600 0.525605 -72.911300 5.348090 -0.000007 -0.000001 -63.480200 34.219000 -20.312300 24.328600 0.000019 0.000005 3.354380 6.647010 -26.850300 22.291600 -0.000001 0.000005 -0.446825 5.443280 -4.401130 12.994500 -0.242716 -4.980390 88.348600 5.458350 -73.139200 -5.348130 -0.000001 -0.000004 -60.929100 39.216700 -20.868400 -24.328900 0.000322 -0.000009 5.373450 13.210100 -22.374600 -22.291500 -0.000108 -0.000004 -1.157130 5.325380 -0.648398 -2.192480 -6.469440 -0.000000 -175.327000 -8.119740 -1.568500 39.081100 -0.000007 -0.000012 -0.109640 0.249867 23.691600 40.985400 -0.000006 -0.000013 0.134007 4.426870 -66.472200 11.754300 -0.000000 0.000003 -0.000054 -0.000604 -16.601000 -2.192510 6.469440 -0.000001 178.921000 15.162300 -178.478000 -39.081100 -0.002282 -0.040193 -0.071905 0.206473 20.018900 -40.985400 0.000008 0.000006 1.982780 7.205100 -65.863000 -11.754300 -0.000006 -0.000006 -0.008400 -0.091270 -20.290100
0.000000 0.000000 0.000000 0.000000 0.000000 -0.000000 -0.550374 92.210900 -0.967166 88.211300 0.266999 6.030250 15.735700 0.000005 -0.000001 83.803200 85.048500 -83.376800 8.984550 -0.406207 -0.000000 2.083650 -1.089380 0.871912 16.377300 -0.000001 -0.000001 2.933090 -2.537270 0.275253 6.456720 -0.000001 -0.000000 6.505670 -3.221330 -0.676420 12.994200 -0.242716 4.980390 -90.212100 0.696480 -73.062800 5.348090 -0.000007 -0.000001 -60.216100 30.221500 -23.796300 24.328600 0.000019 0.000005 4.216770 7.014350 -31.121800 22.291600 -0.000001 0.000005 0.111453 5.451240 -4.681670 12.994500 -0.242716 -4.980390 88.300400 5.543080 -72.924200 -5.348130 -0.000001 -0.000004 -57.067000 36.627900 -24.627000 -24.328900 0.000322 -0.000009 6.344960 12.692900 -26.847300 -22.291500 -0.000108 -0.000004 -2.946080 5.309760 -0.202214 -2.192480 -6.469440 -0.000000 -175.295000 -8.165580 -1.523130 39.081100 -0.000007 -0.000012 -0.108417 0.246466 23.744000 40.985400 -0.000006 -0.000013 0.153393 4.544610 -66.373100 11.754300 -0.000000 0.000003 -0.000051 -0.000579 -16.600000 -2.192510 6.469440 -0.000001 178.910000 15.143400 -178.434000 -39.081100 -0.002282 -0.040193 -0.074225 0.211999 20.091800 -40.985400 0.000008 0.000006 1.927100 7.118590 -65.774900 -11.754300 -0.000006 -0.000006 -0.008352 -0.090885 -20.274400
0.000000 0.000000 0.000000 0.000000 0.000000 -0.000000 -0.562610 92.210600 -1.140120 88.209800 0.164087 6.257660 15.735700 0.000005 -0.000001 83.766800 85.041300 -83.333600 8.984550 -0.406207 -0.000000 2.097430 -1.097480 0.885720 16.377300 -0.000001 -0.000001 3.421270 -2.490210 0.249313 6.456720 -0.000001 -0.000000 6.895870 -3.056670 -0.697666 12.994200 -0.242716 4.980390 -90.210300 0.699123 -73.262200 5.348090 -0.000007 -0.000001 -57.048500 24.843700 -27.829600 24.328600 0.000019 0.000005 4.307150 5.830560 -36.560700 22.291600 -0.000001 0.000005 1.607550 5.466500 -5.237630 12.994500 -0.242716 -4.980390 88.304900 5.489070 -72.808900 -5.348130 -0.000001 -0.000004 -53.713900 31.776100 -28.879600 -24.328900 0.000322 -0.000009 7.165550 11.406000 -32.450500 -22.291500 -0.000108 -0.000004 -1.751780 5.304360 -0.047351 -2.192480 -6.469440 -0.000000 -175.283000 -8.117740 -1.444000 39.081100 -0.000007 -0.000012 -0.106883 0.242076 23.822700 40.985400 -0.000006 -0.000013 0.128665 4.412780 -66.297800 11.754300 -0.000000 0.000003 -0.000049 -0.000553 -16.599000 -2.192510 6.469440 -0.000001 178.857000 15.130700 -178.363000 -39.081100 -0.002282 -0.040193 -0.078137 0.221763 20.169200 -40.985400 0.000008 0.000006 1.792710 7.222900 -65.668100 -11.754300 -0.000006 -0.000006 -0.008185 -0.089537 -20.219300
0.000000 0.000000 0.000000 0.000000 0.000000 -0.000000 -0.565877 92.208600 -1.311790 88.168500 -0.042154 6.491700 15.735700 0.000005 -0.000001 83.720800 85.067800 -83.263200 8.984550 -0.406207 -0.000000 2.044150 -1.101030 0.933825 16.377300 -0.000001 -0.000001 3.981580 -2.365920 0.246196 6.456720 -0.000001 -0.000000 7.586220 -2.899030 -0.725816 12.994200 -0.242716 4.980390 -90.151300 0.510049 -73.476300 5.348090 -0.000007 -0.000001 -54.628800 18.198800 -32.141400 24.328600 0.000019 0.000005 4.888750 5.226450 -43.195800 22.291600 -0.000001 0.000005 3.510400 5.477230 -5.637750 12.994500 -0.242716 -4.980390 88.364900 5.271140 -72.738500 -5.348130 -0.000001 -0.000004 -51.098900 25.557300 -33.642700 -24.328900 0.000322 -0.000009 8.678360 10.790300 -39.190700 -22.291500 -0.000108 -0.000004 1.634220 5.305440 -0.080124 -2.192480 -6.469440 -0.000000 -175.188000 -8.318310 -1.354890 39.081100 -0.000007 -0.000012 -0.107399 0.241952 23.935800 40.985400 -0.000006 -0.000013 0.140806 4.445080 -66.248600 11.754300 -0.000000 0.000003 -0.000054 -0.000610 -16.601200 -2.192510 6.469440 -0.000001 178.863000 15.020100 -178.296000 -39.081100 -0.002282 -0.040193 -0.081262 0.229442 20.236200 -40.985400 0.000008 0.000006 1.675810 7.341000 -65.544800 -11.754300 -0.000006 -0.000006 -0.008302 -0.090482 -20.257900
